<svg width="1000" height="400" viewBox="0 0 1000 400" fill="none" xmlns="http://www.w3.org/2000/svg">
<rect x="52.5" y="27.5" width="895" height="345" rx="7.5" stroke="white" stroke-width="5" stroke-linecap="round" stroke-linejoin="round" stroke-dasharray="40 40"/>
<circle cx="500" cy="200" r="100" fill="#3E3E3E"/>
<mask id="path-3-outside-1_736_390" maskUnits="userSpaceOnUse" x="431" y="239.182" width="138" height="18" fill="black">
<rect fill="white" x="431" y="239.182" width="138" height="18"/>
<path d="M436.981 255.322C436.061 255.322 435.247 255.162 434.541 254.842C433.847 254.522 433.301 254.075 432.901 253.502C432.501 252.929 432.287 252.289 432.261 251.582H433.741C433.807 252.262 434.107 252.862 434.641 253.382C435.174 253.889 435.954 254.142 436.981 254.142C437.927 254.142 438.674 253.902 439.221 253.422C439.781 252.929 440.061 252.309 440.061 251.562C440.061 250.962 439.907 250.482 439.601 250.122C439.294 249.749 438.914 249.475 438.461 249.302C438.007 249.115 437.381 248.915 436.581 248.702C435.647 248.449 434.907 248.202 434.361 247.962C433.814 247.722 433.347 247.349 432.961 246.842C432.574 246.335 432.381 245.649 432.381 244.782C432.381 244.062 432.567 243.422 432.941 242.862C433.314 242.289 433.841 241.842 434.521 241.522C435.201 241.202 435.981 241.042 436.861 241.042C438.154 241.042 439.194 241.362 439.981 242.002C440.781 242.629 441.241 243.442 441.361 244.442H439.841C439.747 243.869 439.434 243.362 438.901 242.922C438.367 242.469 437.647 242.242 436.741 242.242C435.901 242.242 435.201 242.469 434.641 242.922C434.081 243.362 433.801 243.969 433.801 244.742C433.801 245.329 433.954 245.802 434.261 246.162C434.567 246.522 434.947 246.795 435.401 246.982C435.867 247.169 436.494 247.369 437.281 247.582C438.187 247.835 438.921 248.089 439.481 248.342C440.041 248.582 440.514 248.955 440.901 249.462C441.287 249.969 441.481 250.649 441.481 251.502C441.481 252.155 441.307 252.775 440.961 253.362C440.614 253.949 440.101 254.422 439.421 254.782C438.741 255.142 437.927 255.322 436.981 255.322ZM454.646 244.262V255.182H453.246V253.262C452.926 253.942 452.433 254.462 451.766 254.822C451.099 255.182 450.353 255.362 449.526 255.362C448.219 255.362 447.153 254.962 446.326 254.162C445.499 253.349 445.086 252.175 445.086 250.642V244.262H446.466V250.482C446.466 251.669 446.759 252.575 447.346 253.202C447.946 253.829 448.759 254.142 449.786 254.142C450.839 254.142 451.679 253.809 452.306 253.142C452.933 252.475 453.246 251.495 453.246 250.202V244.262H454.646ZM460.222 246.682C460.582 245.922 461.136 245.302 461.882 244.822C462.642 244.342 463.536 244.102 464.562 244.102C465.562 244.102 466.456 244.335 467.242 244.802C468.029 245.255 468.642 245.909 469.082 246.762C469.536 247.602 469.762 248.582 469.762 249.702C469.762 250.822 469.536 251.809 469.082 252.662C468.642 253.515 468.022 254.175 467.222 254.642C466.436 255.109 465.549 255.342 464.562 255.342C463.522 255.342 462.622 255.109 461.862 254.642C461.116 254.162 460.569 253.542 460.222 252.782V255.182H458.842V240.382H460.222V246.682ZM468.342 249.702C468.342 248.795 468.162 248.015 467.802 247.362C467.456 246.695 466.976 246.189 466.362 245.842C465.749 245.495 465.056 245.322 464.282 245.322C463.536 245.322 462.849 245.502 462.222 245.862C461.609 246.222 461.122 246.735 460.762 247.402C460.402 248.069 460.222 248.842 460.222 249.722C460.222 250.602 460.402 251.375 460.762 252.042C461.122 252.709 461.609 253.222 462.222 253.582C462.849 253.942 463.536 254.122 464.282 254.122C465.056 254.122 465.749 253.949 466.362 253.602C466.976 253.242 467.456 252.729 467.802 252.062C468.162 251.382 468.342 250.595 468.342 249.702ZM483.218 249.162C483.218 249.642 483.205 250.009 483.178 250.262H474.118C474.158 251.089 474.358 251.795 474.718 252.382C475.078 252.969 475.552 253.415 476.138 253.722C476.725 254.015 477.365 254.162 478.058 254.162C478.965 254.162 479.725 253.942 480.338 253.502C480.965 253.062 481.378 252.469 481.578 251.722H483.058C482.792 252.789 482.218 253.662 481.338 254.342C480.472 255.009 479.378 255.342 478.058 255.342C477.032 255.342 476.112 255.115 475.298 254.662C474.485 254.195 473.845 253.542 473.378 252.702C472.925 251.849 472.698 250.855 472.698 249.722C472.698 248.589 472.925 247.595 473.378 246.742C473.832 245.889 474.465 245.235 475.278 244.782C476.092 244.329 477.018 244.102 478.058 244.102C479.098 244.102 480.005 244.329 480.778 244.782C481.565 245.235 482.165 245.849 482.578 246.622C483.005 247.382 483.218 248.229 483.218 249.162ZM481.798 249.122C481.812 248.309 481.645 247.615 481.298 247.042C480.965 246.469 480.505 246.035 479.918 245.742C479.332 245.449 478.692 245.302 477.998 245.302C476.958 245.302 476.072 245.635 475.338 246.302C474.605 246.969 474.198 247.909 474.118 249.122H481.798ZM501.448 241.202V242.362H497.568V255.182H496.168V242.362H492.268V241.202H501.448ZM514.119 244.262V255.182H512.719V253.262C512.399 253.942 511.905 254.462 511.239 254.822C510.572 255.182 509.825 255.362 508.999 255.362C507.692 255.362 506.625 254.962 505.799 254.162C504.972 253.349 504.559 252.175 504.559 250.642V244.262H505.939V250.482C505.939 251.669 506.232 252.575 506.819 253.202C507.419 253.829 508.232 254.142 509.259 254.142C510.312 254.142 511.152 253.809 511.779 253.142C512.405 252.475 512.719 251.495 512.719 250.202V244.262H514.119ZM532.363 241.202V242.362H526.203V247.582H531.403V248.742H526.203V255.182H524.803V241.202H532.363ZM540.446 255.342C539.42 255.342 538.493 255.115 537.666 254.662C536.853 254.195 536.206 253.542 535.726 252.702C535.26 251.849 535.026 250.855 535.026 249.722C535.026 248.589 535.266 247.602 535.746 246.762C536.226 245.909 536.88 245.255 537.706 244.802C538.533 244.335 539.46 244.102 540.486 244.102C541.513 244.102 542.44 244.335 543.266 244.802C544.106 245.255 544.76 245.909 545.226 246.762C545.706 247.602 545.946 248.589 545.946 249.722C545.946 250.842 545.706 251.829 545.226 252.682C544.746 253.535 544.086 254.195 543.246 254.662C542.406 255.115 541.473 255.342 540.446 255.342ZM540.446 254.122C541.166 254.122 541.833 253.962 542.446 253.642C543.06 253.309 543.553 252.815 543.926 252.162C544.313 251.495 544.506 250.682 544.506 249.722C544.506 248.762 544.32 247.955 543.946 247.302C543.573 246.635 543.08 246.142 542.466 245.822C541.853 245.489 541.186 245.322 540.466 245.322C539.746 245.322 539.08 245.489 538.466 245.822C537.853 246.142 537.36 246.635 536.986 247.302C536.626 247.955 536.446 248.762 536.446 249.722C536.446 250.682 536.626 251.495 536.986 252.162C537.36 252.815 537.846 253.309 538.446 253.642C539.06 253.962 539.726 254.122 540.446 254.122ZM551.318 245.442V252.222C551.318 252.889 551.445 253.349 551.698 253.602C551.952 253.855 552.398 253.982 553.038 253.982H554.318V255.182H552.818C551.832 255.182 551.098 254.955 550.618 254.502C550.138 254.035 549.898 253.275 549.898 252.222V245.442H548.378V244.262H549.898V241.522H551.318V244.262H554.318V245.442H551.318ZM562.407 255.342C561.381 255.342 560.454 255.115 559.627 254.662C558.814 254.195 558.167 253.542 557.687 252.702C557.221 251.849 556.987 250.855 556.987 249.722C556.987 248.589 557.227 247.602 557.707 246.762C558.187 245.909 558.841 245.255 559.667 244.802C560.494 244.335 561.421 244.102 562.447 244.102C563.474 244.102 564.401 244.335 565.227 244.802C566.067 245.255 566.721 245.909 567.187 246.762C567.667 247.602 567.907 248.589 567.907 249.722C567.907 250.842 567.667 251.829 567.187 252.682C566.707 253.535 566.047 254.195 565.207 254.662C564.367 255.115 563.434 255.342 562.407 255.342ZM562.407 254.122C563.127 254.122 563.794 253.962 564.407 253.642C565.021 253.309 565.514 252.815 565.887 252.162C566.274 251.495 566.467 250.682 566.467 249.722C566.467 248.762 566.281 247.955 565.907 247.302C565.534 246.635 565.041 246.142 564.427 245.822C563.814 245.489 563.147 245.322 562.427 245.322C561.707 245.322 561.041 245.489 560.427 245.822C559.814 246.142 559.321 246.635 558.947 247.302C558.587 247.955 558.407 248.762 558.407 249.722C558.407 250.682 558.587 251.495 558.947 252.162C559.321 252.815 559.807 253.309 560.407 253.642C561.021 253.962 561.687 254.122 562.407 254.122Z"/>
</mask>
<path d="M436.981 255.322C436.061 255.322 435.247 255.162 434.541 254.842C433.847 254.522 433.301 254.075 432.901 253.502C432.501 252.929 432.287 252.289 432.261 251.582H433.741C433.807 252.262 434.107 252.862 434.641 253.382C435.174 253.889 435.954 254.142 436.981 254.142C437.927 254.142 438.674 253.902 439.221 253.422C439.781 252.929 440.061 252.309 440.061 251.562C440.061 250.962 439.907 250.482 439.601 250.122C439.294 249.749 438.914 249.475 438.461 249.302C438.007 249.115 437.381 248.915 436.581 248.702C435.647 248.449 434.907 248.202 434.361 247.962C433.814 247.722 433.347 247.349 432.961 246.842C432.574 246.335 432.381 245.649 432.381 244.782C432.381 244.062 432.567 243.422 432.941 242.862C433.314 242.289 433.841 241.842 434.521 241.522C435.201 241.202 435.981 241.042 436.861 241.042C438.154 241.042 439.194 241.362 439.981 242.002C440.781 242.629 441.241 243.442 441.361 244.442H439.841C439.747 243.869 439.434 243.362 438.901 242.922C438.367 242.469 437.647 242.242 436.741 242.242C435.901 242.242 435.201 242.469 434.641 242.922C434.081 243.362 433.801 243.969 433.801 244.742C433.801 245.329 433.954 245.802 434.261 246.162C434.567 246.522 434.947 246.795 435.401 246.982C435.867 247.169 436.494 247.369 437.281 247.582C438.187 247.835 438.921 248.089 439.481 248.342C440.041 248.582 440.514 248.955 440.901 249.462C441.287 249.969 441.481 250.649 441.481 251.502C441.481 252.155 441.307 252.775 440.961 253.362C440.614 253.949 440.101 254.422 439.421 254.782C438.741 255.142 437.927 255.322 436.981 255.322ZM454.646 244.262V255.182H453.246V253.262C452.926 253.942 452.433 254.462 451.766 254.822C451.099 255.182 450.353 255.362 449.526 255.362C448.219 255.362 447.153 254.962 446.326 254.162C445.499 253.349 445.086 252.175 445.086 250.642V244.262H446.466V250.482C446.466 251.669 446.759 252.575 447.346 253.202C447.946 253.829 448.759 254.142 449.786 254.142C450.839 254.142 451.679 253.809 452.306 253.142C452.933 252.475 453.246 251.495 453.246 250.202V244.262H454.646ZM460.222 246.682C460.582 245.922 461.136 245.302 461.882 244.822C462.642 244.342 463.536 244.102 464.562 244.102C465.562 244.102 466.456 244.335 467.242 244.802C468.029 245.255 468.642 245.909 469.082 246.762C469.536 247.602 469.762 248.582 469.762 249.702C469.762 250.822 469.536 251.809 469.082 252.662C468.642 253.515 468.022 254.175 467.222 254.642C466.436 255.109 465.549 255.342 464.562 255.342C463.522 255.342 462.622 255.109 461.862 254.642C461.116 254.162 460.569 253.542 460.222 252.782V255.182H458.842V240.382H460.222V246.682ZM468.342 249.702C468.342 248.795 468.162 248.015 467.802 247.362C467.456 246.695 466.976 246.189 466.362 245.842C465.749 245.495 465.056 245.322 464.282 245.322C463.536 245.322 462.849 245.502 462.222 245.862C461.609 246.222 461.122 246.735 460.762 247.402C460.402 248.069 460.222 248.842 460.222 249.722C460.222 250.602 460.402 251.375 460.762 252.042C461.122 252.709 461.609 253.222 462.222 253.582C462.849 253.942 463.536 254.122 464.282 254.122C465.056 254.122 465.749 253.949 466.362 253.602C466.976 253.242 467.456 252.729 467.802 252.062C468.162 251.382 468.342 250.595 468.342 249.702ZM483.218 249.162C483.218 249.642 483.205 250.009 483.178 250.262H474.118C474.158 251.089 474.358 251.795 474.718 252.382C475.078 252.969 475.552 253.415 476.138 253.722C476.725 254.015 477.365 254.162 478.058 254.162C478.965 254.162 479.725 253.942 480.338 253.502C480.965 253.062 481.378 252.469 481.578 251.722H483.058C482.792 252.789 482.218 253.662 481.338 254.342C480.472 255.009 479.378 255.342 478.058 255.342C477.032 255.342 476.112 255.115 475.298 254.662C474.485 254.195 473.845 253.542 473.378 252.702C472.925 251.849 472.698 250.855 472.698 249.722C472.698 248.589 472.925 247.595 473.378 246.742C473.832 245.889 474.465 245.235 475.278 244.782C476.092 244.329 477.018 244.102 478.058 244.102C479.098 244.102 480.005 244.329 480.778 244.782C481.565 245.235 482.165 245.849 482.578 246.622C483.005 247.382 483.218 248.229 483.218 249.162ZM481.798 249.122C481.812 248.309 481.645 247.615 481.298 247.042C480.965 246.469 480.505 246.035 479.918 245.742C479.332 245.449 478.692 245.302 477.998 245.302C476.958 245.302 476.072 245.635 475.338 246.302C474.605 246.969 474.198 247.909 474.118 249.122H481.798ZM501.448 241.202V242.362H497.568V255.182H496.168V242.362H492.268V241.202H501.448ZM514.119 244.262V255.182H512.719V253.262C512.399 253.942 511.905 254.462 511.239 254.822C510.572 255.182 509.825 255.362 508.999 255.362C507.692 255.362 506.625 254.962 505.799 254.162C504.972 253.349 504.559 252.175 504.559 250.642V244.262H505.939V250.482C505.939 251.669 506.232 252.575 506.819 253.202C507.419 253.829 508.232 254.142 509.259 254.142C510.312 254.142 511.152 253.809 511.779 253.142C512.405 252.475 512.719 251.495 512.719 250.202V244.262H514.119ZM532.363 241.202V242.362H526.203V247.582H531.403V248.742H526.203V255.182H524.803V241.202H532.363ZM540.446 255.342C539.42 255.342 538.493 255.115 537.666 254.662C536.853 254.195 536.206 253.542 535.726 252.702C535.26 251.849 535.026 250.855 535.026 249.722C535.026 248.589 535.266 247.602 535.746 246.762C536.226 245.909 536.88 245.255 537.706 244.802C538.533 244.335 539.46 244.102 540.486 244.102C541.513 244.102 542.44 244.335 543.266 244.802C544.106 245.255 544.76 245.909 545.226 246.762C545.706 247.602 545.946 248.589 545.946 249.722C545.946 250.842 545.706 251.829 545.226 252.682C544.746 253.535 544.086 254.195 543.246 254.662C542.406 255.115 541.473 255.342 540.446 255.342ZM540.446 254.122C541.166 254.122 541.833 253.962 542.446 253.642C543.06 253.309 543.553 252.815 543.926 252.162C544.313 251.495 544.506 250.682 544.506 249.722C544.506 248.762 544.32 247.955 543.946 247.302C543.573 246.635 543.08 246.142 542.466 245.822C541.853 245.489 541.186 245.322 540.466 245.322C539.746 245.322 539.08 245.489 538.466 245.822C537.853 246.142 537.36 246.635 536.986 247.302C536.626 247.955 536.446 248.762 536.446 249.722C536.446 250.682 536.626 251.495 536.986 252.162C537.36 252.815 537.846 253.309 538.446 253.642C539.06 253.962 539.726 254.122 540.446 254.122ZM551.318 245.442V252.222C551.318 252.889 551.445 253.349 551.698 253.602C551.952 253.855 552.398 253.982 553.038 253.982H554.318V255.182H552.818C551.832 255.182 551.098 254.955 550.618 254.502C550.138 254.035 549.898 253.275 549.898 252.222V245.442H548.378V244.262H549.898V241.522H551.318V244.262H554.318V245.442H551.318ZM562.407 255.342C561.381 255.342 560.454 255.115 559.627 254.662C558.814 254.195 558.167 253.542 557.687 252.702C557.221 251.849 556.987 250.855 556.987 249.722C556.987 248.589 557.227 247.602 557.707 246.762C558.187 245.909 558.841 245.255 559.667 244.802C560.494 244.335 561.421 244.102 562.447 244.102C563.474 244.102 564.401 244.335 565.227 244.802C566.067 245.255 566.721 245.909 567.187 246.762C567.667 247.602 567.907 248.589 567.907 249.722C567.907 250.842 567.667 251.829 567.187 252.682C566.707 253.535 566.047 254.195 565.207 254.662C564.367 255.115 563.434 255.342 562.407 255.342ZM562.407 254.122C563.127 254.122 563.794 253.962 564.407 253.642C565.021 253.309 565.514 252.815 565.887 252.162C566.274 251.495 566.467 250.682 566.467 249.722C566.467 248.762 566.281 247.955 565.907 247.302C565.534 246.635 565.041 246.142 564.427 245.822C563.814 245.489 563.147 245.322 562.427 245.322C561.707 245.322 561.041 245.489 560.427 245.822C559.814 246.142 559.321 246.635 558.947 247.302C558.587 247.955 558.407 248.762 558.407 249.722C558.407 250.682 558.587 251.495 558.947 252.162C559.321 252.815 559.807 253.309 560.407 253.642C561.021 253.962 561.687 254.122 562.407 254.122Z" fill="white"/>
<path d="M434.541 254.842L434.122 255.75L434.128 255.753L434.541 254.842ZM432.901 253.502L433.721 252.93L433.721 252.93L432.901 253.502ZM432.261 251.582V250.582H431.222L431.261 251.62L432.261 251.582ZM433.741 251.582L434.736 251.484L434.647 250.582H433.741V251.582ZM434.641 253.382L433.942 254.098L433.952 254.107L434.641 253.382ZM439.221 253.422L439.88 254.173L439.882 254.172L439.221 253.422ZM439.601 250.122L438.828 250.757L438.834 250.764L438.839 250.77L439.601 250.122ZM438.461 249.302L438.08 250.227L438.092 250.231L438.103 250.236L438.461 249.302ZM436.581 248.702L436.319 249.667L436.323 249.668L436.581 248.702ZM434.361 247.962L434.763 247.046L434.763 247.046L434.361 247.962ZM432.961 246.842L433.756 246.235L433.756 246.235L432.961 246.842ZM432.941 242.862L433.773 243.417L433.779 243.408L432.941 242.862ZM434.521 241.522L434.946 242.427L434.946 242.427L434.521 241.522ZM439.981 242.002L439.35 242.778L439.357 242.783L439.364 242.789L439.981 242.002ZM441.361 244.442V245.442H442.488L442.354 244.323L441.361 244.442ZM439.841 244.442L438.854 244.603L438.99 245.442H439.841V244.442ZM438.901 242.922L438.253 243.684L438.259 243.689L438.264 243.693L438.901 242.922ZM434.641 242.922L435.258 243.708L435.264 243.704L435.27 243.699L434.641 242.922ZM434.261 246.162L435.022 245.513L435.022 245.513L434.261 246.162ZM435.401 246.982L435.02 247.907L435.029 247.91L435.401 246.982ZM437.281 247.582L437.55 246.619L437.542 246.617L437.281 247.582ZM439.481 248.342L439.068 249.253L439.078 249.257L439.087 249.261L439.481 248.342ZM440.901 249.462L441.696 248.855L441.696 248.855L440.901 249.462ZM440.961 253.362L440.1 252.853L440.1 252.853L440.961 253.362ZM439.421 254.782L439.889 255.666L439.889 255.666L439.421 254.782ZM436.981 254.322C436.177 254.322 435.508 254.182 434.953 253.931L434.128 255.753C434.986 256.141 435.944 256.322 436.981 256.322V254.322ZM434.96 253.934C434.412 253.681 434.01 253.344 433.721 252.93L432.08 254.074C432.591 254.806 433.282 255.363 434.122 255.75L434.96 253.934ZM433.721 252.93C433.432 252.516 433.279 252.062 433.26 251.544L431.261 251.62C431.295 252.516 431.569 253.342 432.08 254.074L433.721 252.93ZM432.261 252.582H433.741V250.582H432.261V252.582ZM432.745 251.679C432.837 252.616 433.257 253.429 433.943 254.098L435.339 252.666C434.958 252.295 434.777 251.908 434.736 251.484L432.745 251.679ZM433.952 254.107C434.734 254.85 435.8 255.142 436.981 255.142V253.142C436.108 253.142 435.614 252.927 435.329 252.657L433.952 254.107ZM436.981 255.142C438.095 255.142 439.102 254.857 439.88 254.173L438.561 252.67C438.246 252.947 437.759 253.142 436.981 253.142V255.142ZM439.882 254.172C440.657 253.489 441.061 252.596 441.061 251.562H439.061C439.061 252.022 438.904 252.368 438.56 252.672L439.882 254.172ZM441.061 251.562C441.061 250.79 440.86 250.059 440.362 249.473L438.839 250.77C438.954 250.905 439.061 251.134 439.061 251.562H441.061ZM440.373 249.487C439.956 248.979 439.432 248.603 438.818 248.368L438.103 250.236C438.395 250.348 438.632 250.518 438.828 250.757L440.373 249.487ZM438.841 248.377C438.33 248.167 437.656 247.954 436.838 247.736L436.323 249.668C437.105 249.877 437.685 250.064 438.08 250.227L438.841 248.377ZM436.843 247.737C435.932 247.49 435.245 247.258 434.763 247.046L433.959 248.878C434.57 249.146 435.363 249.408 436.319 249.667L436.843 247.737ZM434.763 247.046C434.381 246.879 434.047 246.617 433.756 246.235L432.166 247.449C432.648 248.08 433.246 248.565 433.959 248.878L434.763 247.046ZM433.756 246.235C433.543 245.956 433.381 245.507 433.381 244.782H431.381C431.381 245.79 431.605 246.714 432.166 247.449L433.756 246.235ZM433.381 244.782C433.381 244.245 433.517 243.801 433.773 243.417L432.109 242.307C431.618 243.043 431.381 243.879 431.381 244.782H433.381ZM433.779 243.408C434.041 243.005 434.417 242.676 434.946 242.427L434.095 240.617C433.264 241.008 432.587 241.572 432.103 242.316L433.779 243.408ZM434.946 242.427C435.472 242.179 436.103 242.042 436.861 242.042V240.042C435.858 240.042 434.929 240.225 434.095 240.617L434.946 242.427ZM436.861 242.042C437.989 242.042 438.786 242.319 439.35 242.778L440.612 241.226C439.602 240.405 438.319 240.042 436.861 240.042V242.042ZM439.364 242.789C439.957 243.254 440.28 243.828 440.368 244.561L442.354 244.323C442.202 243.056 441.604 242.004 440.597 241.215L439.364 242.789ZM441.361 243.442H439.841V245.442H441.361V243.442ZM440.828 244.281C440.688 243.425 440.22 242.714 439.537 242.151L438.264 243.693C438.648 244.01 438.806 244.313 438.854 244.603L440.828 244.281ZM439.548 242.16C438.786 241.512 437.813 241.242 436.741 241.242V243.242C437.481 243.242 437.948 243.425 438.253 243.684L439.548 242.16ZM436.741 241.242C435.711 241.242 434.778 241.524 434.011 242.145L435.27 243.699C435.623 243.413 436.09 243.242 436.741 243.242V241.242ZM434.023 242.136C433.199 242.783 432.801 243.692 432.801 244.742H434.801C434.801 244.245 434.963 243.941 435.258 243.708L434.023 242.136ZM432.801 244.742C432.801 245.507 433.004 246.229 433.499 246.81L435.022 245.513C434.904 245.375 434.801 245.15 434.801 244.742H432.801ZM433.499 246.81C433.913 247.296 434.425 247.662 435.02 247.907L435.781 246.057C435.469 245.929 435.222 245.748 435.022 245.513L433.499 246.81ZM435.029 247.91C435.547 248.117 436.215 248.329 437.019 248.547L437.542 246.617C436.773 246.408 436.188 246.22 435.772 246.053L435.029 247.91ZM437.012 248.545C437.892 248.791 438.572 249.029 439.068 249.253L439.893 247.431C439.269 247.149 438.483 246.879 437.55 246.619L437.012 248.545ZM439.087 249.261C439.481 249.43 439.819 249.692 440.106 250.069L441.696 248.855C441.209 248.218 440.6 247.734 439.875 247.423L439.087 249.261ZM440.106 250.069C440.321 250.35 440.481 250.794 440.481 251.502H442.481C442.481 250.503 442.254 249.587 441.696 248.855L440.106 250.069ZM440.481 251.502C440.481 251.968 440.359 252.414 440.1 252.853L441.822 253.871C442.255 253.137 442.481 252.342 442.481 251.502H440.481ZM440.1 252.853C439.859 253.261 439.491 253.613 438.953 253.898L439.889 255.666C440.71 255.231 441.369 254.636 441.822 253.871L440.1 252.853ZM438.953 253.898C438.446 254.166 437.801 254.322 436.981 254.322V256.322C438.053 256.322 439.035 256.118 439.889 255.666L438.953 253.898ZM454.646 244.262H455.646V243.262H454.646V244.262ZM454.646 255.182V256.182H455.646V255.182H454.646ZM453.246 255.182H452.246V256.182H453.246V255.182ZM453.246 253.262H454.246L452.341 252.836L453.246 253.262ZM451.766 254.822L451.291 253.942L451.291 253.942L451.766 254.822ZM446.326 254.162L445.625 254.875L445.631 254.88L446.326 254.162ZM445.086 244.262V243.262H444.086V244.262H445.086ZM446.466 244.262H447.466V243.262H446.466V244.262ZM447.346 253.202L446.616 253.885L446.624 253.893L447.346 253.202ZM453.246 244.262V243.262H452.246V244.262H453.246ZM453.646 244.262V255.182H455.646V244.262H453.646ZM454.646 254.182H453.246V256.182H454.646V254.182ZM454.246 255.182V253.262H452.246V255.182H454.246ZM452.341 252.836C452.113 253.321 451.771 253.683 451.291 253.942L452.241 255.702C453.094 255.241 453.739 254.563 454.151 253.688L452.341 252.836ZM451.291 253.942C450.783 254.216 450.202 254.362 449.526 254.362V256.362C450.503 256.362 451.415 256.148 452.241 255.702L451.291 253.942ZM449.526 254.362C448.441 254.362 447.636 254.038 447.021 253.443L445.631 254.88C446.669 255.886 447.998 256.362 449.526 256.362V254.362ZM447.027 253.449C446.447 252.878 446.086 251.997 446.086 250.642H444.086C444.086 252.354 444.551 253.819 445.625 254.875L447.027 253.449ZM446.086 250.642V244.262H444.086V250.642H446.086ZM445.086 245.262H446.466V243.262H445.086V245.262ZM445.466 244.262V250.482H447.466V244.262H445.466ZM445.466 250.482C445.466 251.824 445.799 253.012 446.616 253.885L448.076 252.518C447.72 252.138 447.466 251.513 447.466 250.482H445.466ZM446.624 253.893C447.447 254.753 448.541 255.142 449.786 255.142V253.142C448.978 253.142 448.445 252.904 448.068 252.51L446.624 253.893ZM449.786 255.142C451.07 255.142 452.19 254.726 453.035 253.827L451.577 252.457C451.169 252.892 450.609 253.142 449.786 253.142V255.142ZM453.035 253.827C453.896 252.91 454.246 251.644 454.246 250.202H452.246C452.246 251.346 451.969 252.04 451.577 252.457L453.035 253.827ZM454.246 250.202V244.262H452.246V250.202H454.246ZM453.246 245.262H454.646V243.262H453.246V245.262ZM460.222 246.682H459.222L461.126 247.11L460.222 246.682ZM461.882 244.822L461.348 243.976L461.341 243.981L461.882 244.822ZM467.242 244.802L466.732 245.662L466.743 245.668L467.242 244.802ZM469.082 246.762L468.193 247.22L468.198 247.229L468.202 247.237L469.082 246.762ZM469.082 252.662L468.199 252.193L468.193 252.204L469.082 252.662ZM467.222 254.642L466.718 253.778L466.712 253.782L467.222 254.642ZM461.862 254.642L461.321 255.483L461.33 255.489L461.339 255.494L461.862 254.642ZM460.222 252.782L461.132 252.367L459.222 252.782H460.222ZM460.222 255.182V256.182H461.222V255.182H460.222ZM458.842 255.182H457.842V256.182H458.842V255.182ZM458.842 240.382V239.382H457.842V240.382H458.842ZM460.222 240.382H461.222V239.382H460.222V240.382ZM467.802 247.362L466.915 247.823L466.921 247.834L466.926 247.844L467.802 247.362ZM466.362 245.842L465.87 246.712L465.87 246.712L466.362 245.842ZM462.222 245.862L461.724 244.995L461.716 244.999L462.222 245.862ZM460.762 247.402L459.882 246.927L460.762 247.402ZM460.762 252.042L461.642 251.567L461.642 251.567L460.762 252.042ZM462.222 253.582L461.716 254.444L461.724 254.449L462.222 253.582ZM466.362 253.602L466.854 254.472L466.861 254.468L466.868 254.464L466.362 253.602ZM467.802 252.062L466.918 251.594L466.915 251.601L467.802 252.062ZM461.126 247.11C461.401 246.528 461.824 246.048 462.423 245.663L461.341 243.981C460.447 244.556 459.763 245.315 459.318 246.254L461.126 247.11ZM462.416 245.667C462.995 245.302 463.697 245.102 464.562 245.102V243.102C463.374 243.102 462.29 243.382 461.348 243.976L462.416 245.667ZM464.562 245.102C465.4 245.102 466.114 245.295 466.732 245.662L467.752 243.942C466.797 243.375 465.724 243.102 464.562 243.102V245.102ZM466.743 245.668C467.353 246.02 467.836 246.527 468.193 247.22L469.971 246.304C469.448 245.29 468.704 244.49 467.741 243.935L466.743 245.668ZM468.202 247.237C468.564 247.907 468.762 248.719 468.762 249.702H470.762C470.762 248.445 470.507 247.296 469.962 246.287L468.202 247.237ZM468.762 249.702C468.762 250.684 468.564 251.505 468.199 252.193L469.965 253.131C470.507 252.112 470.762 250.959 470.762 249.702H468.762ZM468.193 252.204C467.837 252.894 467.348 253.411 466.718 253.778L467.726 255.506C468.697 254.94 469.447 254.136 469.971 253.12L468.193 252.204ZM466.712 253.782C466.092 254.15 465.384 254.342 464.562 254.342V256.342C465.714 256.342 466.779 256.067 467.732 255.502L466.712 253.782ZM464.562 254.342C463.676 254.342 462.963 254.145 462.385 253.79L461.339 255.494C462.281 256.072 463.369 256.342 464.562 256.342V254.342ZM462.403 253.801C461.807 253.418 461.394 252.941 461.132 252.367L459.312 253.197C459.744 254.143 460.424 254.906 461.321 255.483L462.403 253.801ZM459.222 252.782V255.182H461.222V252.782H459.222ZM460.222 254.182H458.842V256.182H460.222V254.182ZM459.842 255.182V240.382H457.842V255.182H459.842ZM458.842 241.382H460.222V239.382H458.842V241.382ZM459.222 240.382V246.682H461.222V240.382H459.222ZM469.342 249.702C469.342 248.663 469.135 247.709 468.678 246.879L466.926 247.844C467.189 248.321 467.342 248.928 467.342 249.702H469.342ZM468.689 246.901C468.26 246.074 467.648 245.42 466.854 244.971L465.87 246.712C466.304 246.957 466.651 247.316 466.915 247.823L468.689 246.901ZM466.854 244.971C466.076 244.532 465.211 244.322 464.282 244.322V246.322C464.9 246.322 465.421 246.459 465.87 246.712L466.854 244.971ZM464.282 244.322C463.367 244.322 462.507 244.545 461.724 244.995L462.72 246.729C463.19 246.459 463.704 246.322 464.282 246.322V244.322ZM461.716 244.999C460.935 245.458 460.323 246.11 459.882 246.927L461.642 247.877C461.921 247.36 462.283 246.986 462.728 246.724L461.716 244.999ZM459.882 246.927C459.432 247.761 459.222 248.703 459.222 249.722H461.222C461.222 248.981 461.373 248.376 461.642 247.877L459.882 246.927ZM459.222 249.722C459.222 250.741 459.432 251.682 459.882 252.517L461.642 251.567C461.373 251.068 461.222 250.463 461.222 249.722H459.222ZM459.882 252.517C460.323 253.334 460.935 253.986 461.716 254.444L462.728 252.719C462.283 252.458 461.921 252.084 461.642 251.567L459.882 252.517ZM461.724 254.449C462.507 254.899 463.367 255.122 464.282 255.122V253.122C463.704 253.122 463.19 252.985 462.72 252.715L461.724 254.449ZM464.282 255.122C465.211 255.122 466.076 254.912 466.854 254.472L465.87 252.731C465.421 252.985 464.9 253.122 464.282 253.122V255.122ZM466.868 254.464C467.653 254.004 468.261 253.347 468.689 252.523L466.915 251.601C466.65 252.11 466.298 252.48 465.856 252.739L466.868 254.464ZM468.686 252.53C469.134 251.684 469.342 250.732 469.342 249.702H467.342C467.342 250.458 467.191 251.08 466.918 251.594L468.686 252.53ZM483.178 250.262V251.262H484.079L484.173 250.367L483.178 250.262ZM474.118 250.262V249.262H473.069L473.119 250.31L474.118 250.262ZM474.718 252.382L473.866 252.905L473.866 252.905L474.718 252.382ZM476.138 253.722L475.675 254.608L475.683 254.612L475.691 254.616L476.138 253.722ZM480.338 253.502L479.764 252.683L479.755 252.689L480.338 253.502ZM481.578 251.722V250.722H480.811L480.612 251.463L481.578 251.722ZM483.058 251.722L484.028 251.964L484.339 250.722H483.058V251.722ZM481.338 254.342L481.948 255.135L481.95 255.133L481.338 254.342ZM475.298 254.662L474.801 255.529L474.811 255.535L475.298 254.662ZM473.378 252.702L472.495 253.171L472.5 253.179L472.504 253.188L473.378 252.702ZM475.278 244.782L474.791 243.908L474.791 243.908L475.278 244.782ZM480.778 244.782L480.273 245.645L480.279 245.648L480.778 244.782ZM482.578 246.622L481.696 247.093L481.701 247.102L481.706 247.111L482.578 246.622ZM481.798 249.122V250.122H482.782L482.798 249.138L481.798 249.122ZM481.298 247.042L480.434 247.545L480.438 247.552L480.443 247.559L481.298 247.042ZM479.918 245.742L480.365 244.847L480.365 244.847L479.918 245.742ZM475.338 246.302L474.666 245.562L474.666 245.562L475.338 246.302ZM474.118 249.122L473.12 249.056L473.05 250.122H474.118V249.122ZM482.218 249.162C482.218 249.632 482.205 249.957 482.184 250.157L484.173 250.367C484.205 250.06 484.218 249.652 484.218 249.162H482.218ZM483.178 249.262H474.118V251.262H483.178V249.262ZM473.119 250.31C473.166 251.271 473.402 252.148 473.866 252.905L475.571 251.859C475.315 251.442 475.151 250.906 475.117 250.214L473.119 250.31ZM473.866 252.905C474.317 253.639 474.922 254.214 475.675 254.608L476.602 252.836C476.182 252.616 475.84 252.298 475.571 251.859L473.866 252.905ZM475.691 254.616C476.425 254.983 477.219 255.162 478.058 255.162V253.162C477.511 253.162 477.025 253.047 476.585 252.827L475.691 254.616ZM478.058 255.162C479.131 255.162 480.106 254.899 480.921 254.314L479.755 252.689C479.344 252.985 478.799 253.162 478.058 253.162V255.162ZM480.913 254.32C481.734 253.744 482.284 252.952 482.544 251.981L480.612 251.463C480.472 251.985 480.196 252.38 479.764 252.683L480.913 254.32ZM481.578 252.722H483.058V250.722H481.578V252.722ZM482.088 251.479C481.877 252.325 481.431 253.006 480.727 253.551L481.95 255.133C483.005 254.317 483.707 253.252 484.028 251.964L482.088 251.479ZM480.729 253.549C480.071 254.055 479.205 254.342 478.058 254.342V256.342C479.552 256.342 480.873 255.962 481.948 255.135L480.729 253.549ZM478.058 254.342C477.184 254.342 476.435 254.15 475.785 253.788L474.811 255.535C475.788 256.08 476.879 256.342 478.058 256.342V254.342ZM475.796 253.795C475.145 253.421 474.633 252.901 474.252 252.216L472.504 253.188C473.057 254.183 473.825 254.97 474.801 255.529L475.796 253.795ZM474.261 252.233C473.897 251.547 473.698 250.72 473.698 249.722H471.698C471.698 250.99 471.953 252.15 472.495 253.171L474.261 252.233ZM473.698 249.722C473.698 248.724 473.897 247.897 474.261 247.211L472.495 246.273C471.953 247.294 471.698 248.453 471.698 249.722H473.698ZM474.261 247.211C474.628 246.521 475.127 246.011 475.765 245.655L474.791 243.908C473.803 244.459 473.035 245.256 472.495 246.273L474.261 247.211ZM475.765 245.655C476.413 245.294 477.168 245.102 478.058 245.102V243.102C476.868 243.102 475.77 243.363 474.791 243.908L475.765 245.655ZM478.058 245.102C478.949 245.102 479.676 245.295 480.273 245.645L481.284 243.919C480.334 243.362 479.247 243.102 478.058 243.102V245.102ZM480.279 245.648C480.91 246.012 481.374 246.491 481.696 247.093L483.46 246.151C482.956 245.206 482.22 244.459 481.278 243.915L480.279 245.648ZM481.706 247.111C482.043 247.711 482.218 248.387 482.218 249.162H484.218C484.218 248.07 483.967 247.052 483.45 246.132L481.706 247.111ZM482.798 249.138C482.814 248.177 482.617 247.29 482.154 246.524L480.443 247.559C480.673 247.94 480.809 248.44 480.798 249.105L482.798 249.138ZM482.163 246.539C481.733 245.799 481.129 245.229 480.365 244.847L479.471 246.636C479.881 246.841 480.197 247.138 480.434 247.545L482.163 246.539ZM480.365 244.847C479.632 244.481 478.838 244.302 477.998 244.302V246.302C478.545 246.302 479.031 246.416 479.471 246.636L480.365 244.847ZM477.998 244.302C476.723 244.302 475.593 244.719 474.666 245.562L476.011 247.042C476.55 246.551 477.194 246.302 477.998 246.302V244.302ZM474.666 245.562C473.699 246.44 473.213 247.646 473.12 249.056L475.116 249.188C475.183 248.171 475.511 247.497 476.011 247.042L474.666 245.562ZM474.118 250.122H481.798V248.122H474.118V250.122ZM501.448 241.202H502.448V240.202H501.448V241.202ZM501.448 242.362V243.362H502.448V242.362H501.448ZM497.568 242.362V241.362H496.568V242.362H497.568ZM497.568 255.182V256.182H498.568V255.182H497.568ZM496.168 255.182H495.168V256.182H496.168V255.182ZM496.168 242.362H497.168V241.362H496.168V242.362ZM492.268 242.362H491.268V243.362H492.268V242.362ZM492.268 241.202V240.202H491.268V241.202H492.268ZM500.448 241.202V242.362H502.448V241.202H500.448ZM501.448 241.362H497.568V243.362H501.448V241.362ZM496.568 242.362V255.182H498.568V242.362H496.568ZM497.568 254.182H496.168V256.182H497.568V254.182ZM497.168 255.182V242.362H495.168V255.182H497.168ZM496.168 241.362H492.268V243.362H496.168V241.362ZM493.268 242.362V241.202H491.268V242.362H493.268ZM492.268 242.202H501.448V240.202H492.268V242.202ZM514.119 244.262H515.119V243.262H514.119V244.262ZM514.119 255.182V256.182H515.119V255.182H514.119ZM512.719 255.182H511.719V256.182H512.719V255.182ZM512.719 253.262H513.719L511.814 252.836L512.719 253.262ZM511.239 254.822L510.763 253.942L510.763 253.942L511.239 254.822ZM505.799 254.162L505.097 254.875L505.103 254.88L505.799 254.162ZM504.559 244.262V243.262H503.559V244.262H504.559ZM505.939 244.262H506.939V243.262H505.939V244.262ZM506.819 253.202L506.089 253.885L506.096 253.893L506.819 253.202ZM512.719 244.262V243.262H511.719V244.262H512.719ZM513.119 244.262V255.182H515.119V244.262H513.119ZM514.119 254.182H512.719V256.182H514.119V254.182ZM513.719 255.182V253.262H511.719V255.182H513.719ZM511.814 252.836C511.586 253.321 511.244 253.683 510.763 253.942L511.714 255.702C512.567 255.241 513.212 254.563 513.623 253.688L511.814 252.836ZM510.763 253.942C510.256 254.216 509.675 254.362 508.999 254.362V256.362C509.976 256.362 510.888 256.148 511.714 255.702L510.763 253.942ZM508.999 254.362C507.913 254.362 507.108 254.038 506.494 253.443L505.103 254.88C506.142 255.886 507.471 256.362 508.999 256.362V254.362ZM506.5 253.449C505.92 252.878 505.559 251.997 505.559 250.642H503.559C503.559 252.354 504.024 253.819 505.097 254.875L506.5 253.449ZM505.559 250.642V244.262H503.559V250.642H505.559ZM504.559 245.262H505.939V243.262H504.559V245.262ZM504.939 244.262V250.482H506.939V244.262H504.939ZM504.939 250.482C504.939 251.824 505.271 253.012 506.089 253.885L507.549 252.518C507.192 252.138 506.939 251.513 506.939 250.482H504.939ZM506.096 253.893C506.919 254.753 508.013 255.142 509.259 255.142V253.142C508.451 253.142 507.918 252.904 507.541 252.51L506.096 253.893ZM509.259 255.142C510.542 255.142 511.662 254.726 512.507 253.827L511.05 252.457C510.641 252.892 510.082 253.142 509.259 253.142V255.142ZM512.507 253.827C513.369 252.91 513.719 251.644 513.719 250.202H511.719C511.719 251.346 511.441 252.04 511.05 252.457L512.507 253.827ZM513.719 250.202V244.262H511.719V250.202H513.719ZM512.719 245.262H514.119V243.262H512.719V245.262ZM532.363 241.202H533.363V240.202H532.363V241.202ZM532.363 242.362V243.362H533.363V242.362H532.363ZM526.203 242.362V241.362H525.203V242.362H526.203ZM526.203 247.582H525.203V248.582H526.203V247.582ZM531.403 247.582H532.403V246.582H531.403V247.582ZM531.403 248.742V249.742H532.403V248.742H531.403ZM526.203 248.742V247.742H525.203V248.742H526.203ZM526.203 255.182V256.182H527.203V255.182H526.203ZM524.803 255.182H523.803V256.182H524.803V255.182ZM524.803 241.202V240.202H523.803V241.202H524.803ZM531.363 241.202V242.362H533.363V241.202H531.363ZM532.363 241.362H526.203V243.362H532.363V241.362ZM525.203 242.362V247.582H527.203V242.362H525.203ZM526.203 248.582H531.403V246.582H526.203V248.582ZM530.403 247.582V248.742H532.403V247.582H530.403ZM531.403 247.742H526.203V249.742H531.403V247.742ZM525.203 248.742V255.182H527.203V248.742H525.203ZM526.203 254.182H524.803V256.182H526.203V254.182ZM525.803 255.182V241.202H523.803V255.182H525.803ZM524.803 242.202H532.363V240.202H524.803V242.202ZM537.666 254.662L537.169 255.529L537.177 255.534L537.186 255.539L537.666 254.662ZM535.726 252.702L534.849 253.182L534.854 253.19L534.858 253.198L535.726 252.702ZM535.746 246.762L536.615 247.258L536.618 247.252L535.746 246.762ZM537.706 244.802L538.187 245.679L538.198 245.673L537.706 244.802ZM543.266 244.802L542.775 245.673L542.783 245.677L542.791 245.682L543.266 244.802ZM545.226 246.762L544.349 247.242L544.354 247.25L544.358 247.258L545.226 246.762ZM545.226 252.682L546.098 253.172L546.098 253.172L545.226 252.682ZM543.246 254.662L543.721 255.542L543.732 255.536L543.246 254.662ZM542.446 253.642L542.909 254.528L542.916 254.525L542.924 254.521L542.446 253.642ZM543.926 252.162L543.061 251.66L543.058 251.666L543.926 252.162ZM543.946 247.302L543.074 247.791L543.078 247.798L543.946 247.302ZM542.466 245.822L541.989 246.701L541.996 246.705L542.004 246.708L542.466 245.822ZM538.466 245.822L538.929 246.708L538.936 246.705L538.944 246.701L538.466 245.822ZM536.986 247.302L536.114 246.813L536.111 246.819L536.986 247.302ZM536.986 252.162L536.107 252.637L536.112 252.648L536.118 252.658L536.986 252.162ZM538.446 253.642L537.961 254.516L537.972 254.522L537.984 254.528L538.446 253.642ZM540.446 254.342C539.572 254.342 538.814 254.151 538.147 253.785L537.186 255.539C538.173 256.08 539.267 256.342 540.446 256.342V254.342ZM538.164 253.795C537.51 253.419 536.989 252.896 536.595 252.206L534.858 253.198C535.424 254.187 536.196 254.971 537.169 255.529L538.164 253.795ZM536.604 252.222C536.23 251.539 536.026 250.715 536.026 249.722H534.026C534.026 250.995 534.29 252.159 534.849 253.182L536.604 252.222ZM536.026 249.722C536.026 248.733 536.235 247.923 536.615 247.258L534.878 246.266C534.298 247.281 534.026 248.445 534.026 249.722H536.026ZM536.618 247.252C537.01 246.555 537.531 246.039 538.187 245.679L537.226 243.925C536.229 244.472 535.443 245.262 534.875 246.272L536.618 247.252ZM538.198 245.673C538.863 245.298 539.618 245.102 540.486 245.102V243.102C539.302 243.102 538.204 243.373 537.215 243.931L538.198 245.673ZM540.486 245.102C541.355 245.102 542.11 245.298 542.775 245.673L543.758 243.931C542.769 243.373 541.671 243.102 540.486 243.102V245.102ZM542.791 245.682C543.458 246.042 543.973 246.554 544.349 247.242L546.104 246.282C545.546 245.263 544.755 244.469 543.741 243.922L542.791 245.682ZM544.358 247.258C544.738 247.923 544.946 248.733 544.946 249.722H546.946C546.946 248.445 546.675 247.281 546.095 246.266L544.358 247.258ZM544.946 249.722C544.946 250.695 544.739 251.508 544.355 252.192L546.098 253.172C546.674 252.149 546.946 250.989 546.946 249.722H544.946ZM544.355 252.192C543.964 252.887 543.436 253.413 542.761 253.788L543.732 255.536C544.737 254.978 545.529 254.183 546.098 253.172L544.355 252.192ZM542.771 253.782C542.088 254.151 541.32 254.342 540.446 254.342V256.342C541.626 256.342 542.724 256.08 543.721 255.542L542.771 253.782ZM540.446 255.122C541.321 255.122 542.147 254.926 542.909 254.528L541.984 252.755C541.519 252.998 541.012 253.122 540.446 253.122V255.122ZM542.924 254.521C543.713 254.092 544.337 253.46 544.795 252.658L543.058 251.666C542.77 252.171 542.406 252.526 541.969 252.763L542.924 254.521ZM544.791 252.664C545.286 251.811 545.506 250.815 545.506 249.722H543.506C543.506 250.549 543.34 251.179 543.061 251.66L544.791 252.664ZM545.506 249.722C545.506 248.635 545.295 247.646 544.815 246.806L543.078 247.798C543.344 248.264 543.506 248.889 543.506 249.722H545.506ZM544.819 246.813C544.361 245.995 543.733 245.355 542.929 244.935L542.004 246.708C542.427 246.929 542.785 247.275 543.074 247.79L544.819 246.813ZM542.944 244.943C542.179 244.528 541.348 244.322 540.466 244.322V246.322C541.025 246.322 541.527 246.449 541.989 246.701L542.944 244.943ZM540.466 244.322C539.585 244.322 538.754 244.528 537.989 244.943L538.944 246.701C539.406 246.449 539.908 246.322 540.466 246.322V244.322ZM538.004 244.935C537.2 245.355 536.572 245.995 536.114 246.813L537.859 247.79C538.148 247.275 538.506 246.929 538.929 246.708L538.004 244.935ZM536.111 246.819C535.649 247.657 535.446 248.64 535.446 249.722H537.446C537.446 248.883 537.604 248.254 537.862 247.784L536.111 246.819ZM535.446 249.722C535.446 250.804 535.649 251.791 536.107 252.637L537.866 251.687C537.603 251.2 537.446 250.559 537.446 249.722H535.446ZM536.118 252.658C536.573 253.454 537.186 254.086 537.961 254.516L538.932 252.768C538.507 252.532 538.146 252.176 537.855 251.666L536.118 252.658ZM537.984 254.528C538.746 254.926 539.572 255.122 540.446 255.122V253.122C539.881 253.122 539.374 252.998 538.909 252.755L537.984 254.528ZM551.318 245.442V244.442H550.318V245.442H551.318ZM551.698 253.602L552.406 252.895L552.406 252.895L551.698 253.602ZM554.318 253.982H555.318V252.982H554.318V253.982ZM554.318 255.182V256.182H555.318V255.182H554.318ZM550.618 254.502L549.921 255.219L549.927 255.224L549.932 255.229L550.618 254.502ZM549.898 245.442H550.898V244.442H549.898V245.442ZM548.378 245.442H547.378V246.442H548.378V245.442ZM548.378 244.262V243.262H547.378V244.262H548.378ZM549.898 244.262V245.262H550.898V244.262H549.898ZM549.898 241.522V240.522H548.898V241.522H549.898ZM551.318 241.522H552.318V240.522H551.318V241.522ZM551.318 244.262H550.318V245.262H551.318V244.262ZM554.318 244.262H555.318V243.262H554.318V244.262ZM554.318 245.442V246.442H555.318V245.442H554.318ZM550.318 245.442V252.222H552.318V245.442H550.318ZM550.318 252.222C550.318 252.949 550.443 253.761 550.991 254.309L552.406 252.895C552.435 252.925 552.41 252.918 552.378 252.801C552.345 252.685 552.318 252.498 552.318 252.222H550.318ZM550.991 254.309C551.534 254.852 552.324 254.982 553.038 254.982V252.982C552.779 252.982 552.604 252.956 552.496 252.925C552.39 252.895 552.381 252.87 552.406 252.895L550.991 254.309ZM553.038 254.982H554.318V252.982H553.038V254.982ZM553.318 253.982V255.182H555.318V253.982H553.318ZM554.318 254.182H552.818V256.182H554.318V254.182ZM552.818 254.182C551.963 254.182 551.526 253.983 551.305 253.775L549.932 255.229C550.671 255.927 551.7 256.182 552.818 256.182V254.182ZM551.316 253.785C551.116 253.591 550.898 253.156 550.898 252.222H548.898C548.898 253.395 549.161 254.48 549.921 255.219L551.316 253.785ZM550.898 252.222V245.442H548.898V252.222H550.898ZM549.898 244.442H548.378V246.442H549.898V244.442ZM549.378 245.442V244.262H547.378V245.442H549.378ZM548.378 245.262H549.898V243.262H548.378V245.262ZM550.898 244.262V241.522H548.898V244.262H550.898ZM549.898 242.522H551.318V240.522H549.898V242.522ZM550.318 241.522V244.262H552.318V241.522H550.318ZM551.318 245.262H554.318V243.262H551.318V245.262ZM553.318 244.262V245.442H555.318V244.262H553.318ZM554.318 244.442H551.318V246.442H554.318V244.442ZM559.627 254.662L559.13 255.529L559.138 255.534L559.147 255.539L559.627 254.662ZM557.687 252.702L556.81 253.182L556.814 253.19L556.819 253.198L557.687 252.702ZM557.707 246.762L558.576 247.258L558.579 247.252L557.707 246.762ZM559.667 244.802L560.148 245.679L560.159 245.673L559.667 244.802ZM565.227 244.802L564.736 245.673L564.744 245.677L564.752 245.682L565.227 244.802ZM567.187 246.762L566.31 247.242L566.314 247.25L566.319 247.258L567.187 246.762ZM567.187 252.682L568.059 253.172L568.059 253.172L567.187 252.682ZM565.207 254.662L565.682 255.542L565.693 255.536L565.207 254.662ZM564.407 253.642L564.87 254.528L564.877 254.525L564.885 254.521L564.407 253.642ZM565.887 252.162L565.022 251.66L565.019 251.666L565.887 252.162ZM565.907 247.302L565.035 247.791L565.039 247.798L565.907 247.302ZM564.427 245.822L563.95 246.701L563.957 246.705L563.965 246.708L564.427 245.822ZM560.427 245.822L560.89 246.708L560.897 246.705L560.905 246.701L560.427 245.822ZM558.947 247.302L558.075 246.813L558.072 246.819L558.947 247.302ZM558.947 252.162L558.067 252.637L558.073 252.648L558.079 252.658L558.947 252.162ZM560.407 253.642L559.922 254.516L559.933 254.522L559.945 254.528L560.407 253.642ZM562.407 254.342C561.533 254.342 560.775 254.151 560.108 253.785L559.147 255.539C560.133 256.08 561.228 256.342 562.407 256.342V254.342ZM560.125 253.795C559.471 253.419 558.95 252.896 558.556 252.206L556.819 253.198C557.384 254.187 558.157 254.971 559.13 255.529L560.125 253.795ZM558.565 252.222C558.191 251.539 557.987 250.715 557.987 249.722H555.987C555.987 250.995 556.25 252.159 556.81 253.182L558.565 252.222ZM557.987 249.722C557.987 248.733 558.196 247.923 558.576 247.258L556.839 246.266C556.259 247.281 555.987 248.445 555.987 249.722H557.987ZM558.579 247.252C558.971 246.555 559.492 246.039 560.148 245.679L559.187 243.925C558.19 244.472 557.404 245.262 556.836 246.272L558.579 247.252ZM560.159 245.673C560.823 245.298 561.578 245.102 562.447 245.102V243.102C561.263 243.102 560.165 243.373 559.176 243.931L560.159 245.673ZM562.447 245.102C563.316 245.102 564.071 245.298 564.736 245.673L565.719 243.931C564.73 243.373 563.632 243.102 562.447 243.102V245.102ZM564.752 245.682C565.419 246.042 565.934 246.554 566.31 247.242L568.065 246.282C567.507 245.263 566.716 244.469 565.702 243.922L564.752 245.682ZM566.319 247.258C566.699 247.923 566.907 248.733 566.907 249.722H568.907C568.907 248.445 568.636 247.281 568.056 246.266L566.319 247.258ZM566.907 249.722C566.907 250.695 566.7 251.508 566.316 252.192L568.059 253.172C568.635 252.149 568.907 250.989 568.907 249.722H566.907ZM566.316 252.192C565.925 252.887 565.397 253.413 564.722 253.788L565.693 255.536C566.698 254.978 567.49 254.183 568.059 253.172L566.316 252.192ZM564.732 253.782C564.049 254.151 563.281 254.342 562.407 254.342V256.342C563.587 256.342 564.685 256.08 565.682 255.542L564.732 253.782ZM562.407 255.122C563.282 255.122 564.108 254.926 564.87 254.528L563.945 252.755C563.48 252.998 562.973 253.122 562.407 253.122V255.122ZM564.885 254.521C565.674 254.092 566.298 253.46 566.756 252.658L565.019 251.666C564.73 252.171 564.367 252.526 563.93 252.763L564.885 254.521ZM566.752 252.664C567.247 251.811 567.467 250.815 567.467 249.722H565.467C565.467 250.549 565.301 251.179 565.022 251.66L566.752 252.664ZM567.467 249.722C567.467 248.635 567.256 247.646 566.776 246.806L565.039 247.798C565.305 248.264 565.467 248.889 565.467 249.722H567.467ZM566.78 246.813C566.322 245.995 565.693 245.355 564.89 244.935L563.965 246.708C564.388 246.929 564.746 247.275 565.035 247.79L566.78 246.813ZM564.905 244.943C564.14 244.528 563.309 244.322 562.427 244.322V246.322C562.986 246.322 563.488 246.449 563.95 246.701L564.905 244.943ZM562.427 244.322C561.546 244.322 560.714 244.528 559.95 244.943L560.905 246.701C561.367 246.449 561.869 246.322 562.427 246.322V244.322ZM559.965 244.935C559.161 245.355 558.533 245.995 558.075 246.813L559.82 247.79C560.108 247.275 560.467 246.929 560.89 246.708L559.965 244.935ZM558.072 246.819C557.61 247.657 557.407 248.64 557.407 249.722H559.407C559.407 248.883 559.565 248.254 559.823 247.784L558.072 246.819ZM557.407 249.722C557.407 250.804 557.61 251.791 558.067 252.637L559.827 251.687C559.564 251.2 559.407 250.559 559.407 249.722H557.407ZM558.079 252.658C558.534 253.454 559.147 254.086 559.922 254.516L560.893 252.768C560.468 252.532 560.107 252.176 559.816 251.666L558.079 252.658ZM559.945 254.528C560.707 254.926 561.533 255.122 562.407 255.122V253.122C561.842 253.122 561.335 252.998 560.87 252.755L559.945 254.528Z" fill="white" mask="url(#path-3-outside-1_736_390)"/>
<path d="M503.536 132.464C501.583 130.512 498.417 130.512 496.464 132.464L464.645 164.284C462.692 166.237 462.692 169.403 464.645 171.355C466.597 173.308 469.763 173.308 471.716 171.355L500 143.071L528.284 171.355C530.237 173.308 533.403 173.308 535.355 171.355C537.308 169.403 537.308 166.237 535.355 164.284L503.536 132.464ZM505 216L505 136L495 136L495 216L505 216Z" fill="white"/>
<path d="M463.636 211.959L536.364 211.959" stroke="white" stroke-width="10" stroke-linecap="round"/>
<path d="M468.636 192.566C468.636 189.804 466.398 187.566 463.636 187.566C460.875 187.566 458.636 189.804 458.636 192.566H468.636ZM458.636 192.566V211.96H468.636V192.566H458.636Z" fill="white"/>
<path d="M541.364 192.566C541.364 189.804 539.125 187.566 536.364 187.566C533.602 187.566 531.364 189.804 531.364 192.566H541.364ZM531.364 192.566V211.96H541.364V192.566H531.364Z" fill="white"/>
</svg>
